<svg width="298" height="310" viewBox="0 0 298 310" fill="none" xmlns="http://www.w3.org/2000/svg">
<path d="M230.38 92.5403C233.029 95.3723 233.176 98.5869 230.747 101.572C228.982 103.639 228.688 103.716 219.931 104.098C211.544 104.481 210.808 104.634 210.586 106.012C210.513 106.854 209.925 109.457 209.41 111.753C207.276 120.402 205.877 126.066 204.774 130.506C204.185 133.032 203.229 137.165 202.567 139.691C201.978 142.217 201.022 146.35 200.359 148.876C199.771 151.402 198.814 155.383 198.299 157.679C192.928 180.488 192.192 182.325 187.409 184.928C186.158 185.617 183.951 186.383 182.553 186.688C179.757 187.224 179.094 188.525 181.522 188.908C183.878 189.291 189.838 195.873 191.383 199.854C197.857 216.387 180.639 233.763 165.187 226.261C155.328 221.516 150.692 210.34 154.371 200.237C155.99 195.873 160.331 190.898 163.79 189.367C165.187 188.755 166.144 187.913 165.923 187.531C165.335 186.535 120.892 186.535 120.303 187.531C120.083 187.913 121.039 188.755 122.437 189.367C125.749 190.821 130.237 195.797 131.783 199.931C138.257 216.387 120.966 233.763 105.588 226.261C95.7282 221.516 91.0921 210.34 94.771 200.237C96.3901 195.873 100.731 190.898 104.19 189.367C106.985 188.143 106.912 186.765 104.042 186.765C101.835 186.765 97.1993 184.392 95.581 182.479C94.0359 180.641 91.2392 174.288 91.2392 172.528C91.2392 171.839 90.7245 169.696 90.2093 167.706C89.6207 165.792 88.5906 162.194 87.9284 159.821C85.9417 152.167 84.6172 147.116 83.5136 142.983C82.9985 140.763 81.9684 136.859 81.3062 134.333C80.5703 131.807 79.5402 127.827 78.9515 125.531C78.3629 123.234 77.4064 119.79 76.8178 117.876C76.2291 115.963 75.7876 113.666 75.7876 112.671V110.987H130.605C174.974 110.987 185.57 111.14 185.864 111.983C186.01 112.518 185.717 114.279 185.054 115.81C184.465 117.34 183.951 119.56 183.951 120.785C183.951 122.01 183.509 123.464 182.994 123.923C182.258 124.535 168.866 124.841 137.521 124.918L93.0787 125.147L93.2259 127.061C93.3731 128.133 93.9619 130.888 94.6238 133.185C95.2866 135.481 96.3161 139.232 96.8317 141.374C97.4205 143.594 98.3768 147.345 98.9656 149.641C99.6275 151.938 100.584 155.765 101.173 158.061C101.835 160.358 102.865 164.261 103.528 166.634C104.19 169.084 104.778 171.533 104.926 172.068C105.146 172.834 113.167 172.987 143.261 172.834C180.713 172.605 181.375 172.605 181.596 171.073C181.67 170.232 182.258 167.476 182.92 164.95C183.583 162.424 184.539 158.444 185.054 156.147C186.158 151.555 187.63 145.355 189.396 137.931C190.058 135.328 191.014 131.194 191.603 128.745C192.192 126.372 193.222 122.163 193.884 119.407C194.546 116.651 195.576 112.365 196.165 109.839C199.255 96.9796 200.58 94.3775 205.362 91.8514C207.718 90.5501 209.704 90.3206 218.166 90.3206H228.246L230.38 92.5403ZM168.425 202.763C166.954 204.293 166.291 205.747 166.291 207.432C166.291 210.723 169.75 214.32 172.914 214.32C176.077 214.32 179.536 210.723 179.536 207.432C179.536 205.747 178.874 204.293 177.402 202.763C174.459 199.777 171.369 199.777 168.425 202.763ZM108.825 202.763C107.354 204.293 106.691 205.747 106.691 207.432C106.691 210.723 110.15 214.32 113.314 214.32C116.477 214.32 119.936 210.723 119.936 207.432C119.936 205.747 119.274 204.293 117.802 202.763C114.859 199.777 111.769 199.777 108.825 202.763Z" fill="black"/>
</svg>
