<svg width="2607" height="770" viewBox="0 0 2607 770" fill="none" xmlns="http://www.w3.org/2000/svg">
<path d="M220.725 769.99C154.125 769.99 100.845 747.013 60.885 701.059C20.925 654.439 0.945003 585.175 0.945003 493.267C0.945003 401.359 20.925 332.095 60.885 285.475C101.511 238.189 155.124 214.546 221.724 214.546C263.016 214.546 296.649 222.205 322.623 237.523C349.263 252.841 370.908 271.489 387.558 293.467H393.552C392.886 284.809 391.554 272.155 389.556 255.505C388.224 238.189 387.558 224.536 387.558 214.546V0.75995H475.47V760H404.541L391.554 688.072H387.558C371.574 710.716 350.262 730.03 323.622 746.014C296.982 761.998 262.683 769.99 220.725 769.99ZM234.711 697.063C291.321 697.063 330.948 681.745 353.592 651.109C376.902 619.807 388.557 572.854 388.557 510.25V494.266C388.557 427.666 377.568 376.717 355.59 341.419C333.612 305.455 292.986 287.473 233.712 287.473C186.426 287.473 150.795 306.454 126.819 344.416C103.509 381.712 91.854 431.995 91.854 495.265C91.854 559.201 103.509 608.818 126.819 644.116C150.795 679.414 186.759 697.063 234.711 697.063ZM852.327 214.546C898.281 214.546 937.575 224.536 970.209 244.516C1003.51 264.496 1028.82 292.801 1046.13 329.431C1064.12 365.395 1073.11 407.686 1073.11 456.304V509.251H706.473C707.805 569.857 723.123 616.144 752.427 648.112C782.397 679.414 824.022 695.065 877.302 695.065C911.268 695.065 941.238 692.068 967.212 686.074C993.852 679.414 1021.16 670.09 1049.13 658.102V735.025C1021.82 747.013 994.851 755.671 968.211 760.999C941.571 766.993 909.936 769.99 873.306 769.99C822.69 769.99 777.735 759.667 738.441 739.021C699.813 718.375 669.51 687.739 647.532 647.113C626.22 605.821 615.564 555.538 615.564 496.264C615.564 437.656 625.221 387.373 644.535 345.415C664.515 303.457 692.154 271.156 727.452 248.512C763.416 225.868 805.041 214.546 852.327 214.546ZM851.328 286.474C809.37 286.474 776.07 300.127 751.428 327.433C727.452 354.073 713.133 391.369 708.471 439.321H981.198C980.532 394.033 969.876 357.403 949.23 329.431C928.584 300.793 895.95 286.474 851.328 286.474Z" fill="black"/>
<path d="M1424.21 769.99C1376.92 769.99 1334.63 760.333 1297.33 741.019C1260.7 721.705 1231.73 691.735 1210.42 651.109C1189.78 610.483 1179.45 558.535 1179.45 495.265C1179.45 429.331 1190.44 375.718 1212.42 334.426C1234.4 293.134 1264.03 262.831 1301.33 243.517C1339.29 224.203 1382.25 214.546 1430.2 214.546C1457.51 214.546 1483.81 217.543 1509.12 223.537C1534.43 228.865 1555.08 235.525 1571.06 243.517L1544.09 316.444C1528.1 310.45 1509.46 304.789 1488.14 299.461C1466.83 294.133 1446.85 291.469 1428.2 291.469C1322.98 291.469 1270.36 359.068 1270.36 494.266C1270.36 558.868 1283.02 608.485 1308.32 643.117C1334.3 677.083 1372.59 694.066 1423.21 694.066C1452.51 694.066 1478.15 691.069 1500.13 685.075C1522.78 679.081 1543.42 671.755 1562.07 663.097V741.019C1544.09 750.343 1524.11 757.336 1502.13 761.998C1480.82 767.326 1454.84 769.99 1424.21 769.99ZM2154.95 491.269C2154.95 579.847 2132.3 648.445 2087.01 697.063C2042.39 745.681 1981.79 769.99 1905.2 769.99C1857.91 769.99 1815.62 759.334 1778.32 738.022C1741.69 716.044 1712.72 684.409 1691.41 643.117C1670.1 601.159 1659.44 550.543 1659.44 491.269C1659.44 402.691 1681.75 334.426 1726.37 286.474C1771 238.522 1831.6 214.546 1908.19 214.546C1956.81 214.546 1999.43 225.535 2036.06 247.513C2073.36 268.825 2102.33 300.127 2122.98 341.419C2144.29 382.045 2154.95 431.995 2154.95 491.269ZM1750.35 491.269C1750.35 554.539 1762.67 604.822 1787.31 642.118C1812.62 678.748 1852.58 697.063 1907.19 697.063C1961.14 697.063 2000.77 678.748 2026.07 642.118C2051.38 604.822 2064.04 554.539 2064.04 491.269C2064.04 427.999 2051.38 378.382 2026.07 342.418C2000.77 306.454 1960.81 288.472 1906.19 288.472C1851.58 288.472 1811.96 306.454 1787.31 342.418C1762.67 378.382 1750.35 427.999 1750.35 491.269ZM2544.02 214.546C2554.01 214.546 2564.67 215.212 2575.99 216.544C2587.98 217.21 2598.3 218.542 2606.96 220.54L2595.97 301.459C2587.31 299.461 2577.66 297.796 2567 296.464C2557.01 295.132 2547.35 294.466 2538.03 294.466C2510.72 294.466 2485.08 302.125 2461.11 317.443C2437.13 332.095 2417.82 353.074 2403.17 380.38C2389.18 407.02 2382.19 438.322 2382.19 474.286V760H2294.27V224.536H2366.2L2376.19 322.438H2380.19C2397.5 293.134 2419.82 267.826 2447.12 246.514C2474.43 225.202 2506.73 214.546 2544.02 214.546Z" fill="#FFE600"/>
</svg>
